<svg width="12" height="8" viewBox="0 0 12 8" fill="none" xmlns="http://www.w3.org/2000/svg">
<path d="M0.431481 0.631393C0.595568 0.467357 0.818087 0.375206 1.05011 0.375206C1.28212 0.375206 1.50464 0.467357 1.66873 0.631393L5.99998 4.96264L10.3312 0.631393C10.4963 0.472005 10.7173 0.383811 10.9467 0.385804C11.1761 0.387797 11.3956 0.47982 11.5578 0.642052C11.7201 0.804285 11.8121 1.02375 11.8141 1.25317C11.8161 1.48259 11.7279 1.70362 11.5685 1.86864L6.61861 6.81852C6.45452 6.98256 6.232 7.07471 5.99998 7.07471C5.76796 7.07471 5.54544 6.98256 5.38136 6.81852L0.431481 1.86864C0.267444 1.70456 0.175293 1.48204 0.175293 1.25002C0.175293 1.018 0.267444 0.79548 0.431481 0.631393Z" fill="#3D2E87"/>
</svg>
