<svg width="28" height="28" viewBox="0 0 28 28" fill="none" xmlns="http://www.w3.org/2000/svg">
<path d="M14 0.666656C21.364 0.666656 27.3333 6.63599 27.3333 14C27.3333 21.364 21.364 27.3333 14 27.3333C6.63596 27.3333 0.666626 21.364 0.666626 14C0.666626 6.63599 6.63596 0.666656 14 0.666656ZM14 3.33332C11.171 3.33332 8.45787 4.45713 6.45749 6.45752C4.4571 8.45791 3.33329 11.171 3.33329 14C3.33329 16.829 4.4571 19.5421 6.45749 21.5425C8.45787 23.5428 11.171 24.6667 14 24.6667C16.8289 24.6667 19.542 23.5428 21.5424 21.5425C23.5428 19.5421 24.6666 16.829 24.6666 14C24.6666 11.171 23.5428 8.45791 21.5424 6.45752C19.542 4.45713 16.8289 3.33332 14 3.33332ZM14 5.99999C14.3265 6.00003 14.6417 6.11993 14.8858 6.33694C15.1298 6.55396 15.2857 6.85299 15.324 7.17732L15.3333 7.33332V13.448L18.9426 17.0573C19.1818 17.2973 19.3206 17.6192 19.3309 17.9578C19.3413 18.2964 19.2223 18.6263 18.9983 18.8804C18.7742 19.1344 18.4619 19.2937 18.1247 19.3259C17.7874 19.358 17.4506 19.2605 17.1826 19.0533L17.0573 18.9427L13.0573 14.9427C12.8501 14.7353 12.717 14.4653 12.6786 14.1747L12.6666 14V7.33332C12.6666 6.9797 12.8071 6.64056 13.0571 6.39051C13.3072 6.14047 13.6463 5.99999 14 5.99999Z" fill="#3D2E87"/>
</svg>
