<svg width="29" height="29" viewBox="0 0 29 29" fill="none" xmlns="http://www.w3.org/2000/svg">
<path fill-rule="evenodd" clip-rule="evenodd" d="M0.449718 28.5452L0.455045 28.5505C0.596292 28.6928 0.764271 28.8057 0.949324 28.8829C1.13438 28.96 1.33285 28.9998 1.53334 29C1.70204 28.9999 1.86958 28.9721 2.02927 28.9177C2.02927 28.9177 2.89842 28.6736 3.42861 28.4085C4.40821 27.9187 4.12755 27.3558 4.07924 27.1711C4.03093 26.9864 3.91841 26.786 3.42861 26.786C2.86448 26.786 2.21417 26.786 2.21417 26.786L4.74044 19.339L17.5216 6.55779C17.5216 6.55779 20.0626 7.16348 21.101 8.32663C21.9919 9.32458 22.4424 11.4786 22.4424 11.4786L16.4265 17.4946L10.4105 23.5105C9.55262 22.6941 7.6409 20.9635 6.85722 20.5717C6.07354 20.1798 5.38782 21.0615 5.87762 21.5513L9.0694 24.4605L10.7236 25.9683L27.4075 9.28445C28.4274 8.26443 29.0004 6.88102 29.0003 5.43856C29.0002 3.9961 28.4272 2.61275 27.4071 1.59282C26.3871 0.572891 25.0037 -6.31455e-05 23.5613 5.21977e-09C22.1188 6.3156e-05 20.7354 0.573139 19.7155 1.59316L3.03165 18.277L0.082551 26.9711C-0.0103455 27.2415 -0.0251735 27.5325 0.0397672 27.8109C0.104708 28.0893 0.246788 28.3438 0.449718 28.5452ZM23.5586 1.96877C22.6381 1.967 21.7544 2.33008 21.101 2.9785L18.9069 5.17244C18.9069 5.17244 21.4053 5.73313 22.4424 6.85722C23.3746 7.86757 23.8278 10.0933 23.8278 10.0933L26.0217 7.89935C26.6701 7.24597 27.0332 6.36225 27.0315 5.44172C27.0297 4.52119 26.6633 3.63885 26.0124 2.98793C25.3615 2.33701 24.4792 1.97054 23.5586 1.96877Z" fill="#3D2E87"/>
</svg>
